# AST/ASF file generated using VICON BodyLanguage
# -----------------------------------------------
:version 1.10
:name VICON
:units
  mass 1.0
  length 0.45
  angle deg
:documentation
   .ast/.asf automatically generated from VICON data using
   VICON BodyBuilder and BodyLanguage model FoxedUp or BRILLIANT.MOD
:root
   order TX TY TZ RX RY RZ
   axis XYZ
   position 0 0 0  
   orientation 0 0 0 
:bonedata
  begin
     id 1 
     name lhipjoint
     direction 0.573633 -0.743009 0.344793 
     length 2.46257 
     axis 0 0 0  XYZ
  end
  begin
     id 2 
     name lfemur
     direction 0.34202 -0.939693 0  
     length 7.3842  
     axis 0 0 20  XYZ
    dof rx ry rz
    limits (-160.0 20.0)
           (-70.0 70.0)
           (-60.0 70.0)
  end
  begin
     id 3 
     name ltibia
     direction 0.34202 -0.939693 0   
     length 7.50407   
     axis 0 0 20   XYZ
    dof rx
    limits (-10.0 170.0)
  end
  begin
     id 4 
     name lfoot
     direction 0.110749 -0.304281 0.946123   
     length 1.95925   
     axis -90 7.62852e-016 20   XYZ
    dof rx rz
    limits (-45.0 90.0)
           (-70.0 20.0)
  end
  begin
     id 5 
     name ltoes
     direction 1.53554e-011 -4.21843e-011 1   
     length 0.978318   
     axis -90 7.62852e-016 20   XYZ
    dof rx
    limits (-90.0 20.0)
  end
  begin
     id 6 
     name rhipjoint
     direction -0.488109 -0.791693 0.367385   
     length 2.31113  
     axis 0 0 0  XYZ 
  end
  begin
     id 7 
     name rfemur
     direction -0.34202 -0.939693 0   
     length 7.40965   
     axis 0 0 -20   XYZ
    dof rx ry rz
    limits (-160.0 20.0)
           (-70.0 70.0)
           (-70.0 60.0)
  end
  begin
     id 8 
     name rtibia
     direction -0.34202 -0.939693 0   
     length 7.55548   
     axis 0 0 -20   XYZ
    dof rx
    limits (-10.0 170.0)
 end
 begin
     id 9 
     name rfoot
     direction -0.127594 -0.350561 0.927808   
     length 2.07199  
     axis -90 -7.62852e-016 -20   XYZ
    dof rx rz
    limits (-45.0 90.0)
           (-20.0 70.0)
  end
  begin
     id 10 
     name rtoes
     direction -1.53542e-011 -4.21909e-011 1   
     length 1.02667   
     axis -90 -7.62852e-016 -20   XYZ
    dof rx
    limits (-90.0 20.0)
  end
  begin
     id 11 
     name lowerback
     direction -0.0103342 0.997298 -0.0727278   
     length 2.02836   
     axis 0 0 0   XYZ
    dof rx ry rz
    limits (-20.0 45.0)
           (-30.0 30.0)
           (-30.0 30.0)
  end
  begin
     id 12 
     name upperback
     direction 0.0171146 0.999786 -0.011606   
     length 2.03179   
     axis 0 0 0   XYZ
    dof rx ry rz
    limits (-20.0 45.0)
           (-30.0 30.0)
           (-30.0 30.0)
  end
  begin
     id 13 
     name thorax
     direction 0.0216927 0.999513 0.0224343   
     length 2.03882   
     axis 0 0 0   XYZ
    dof rx ry rz
    limits (-20.0 45.0)
           (-30.0 30.0)
           (-30.0 30.0)
  end
  begin
     id 14 
     name lowerneck
     direction 0.000989287 0.993907 0.110221   
     length 1.75428   
     axis 0 0 0   XYZ
    dof rx ry rz
    limits (-20.0 45.0)
           (-30.0 30.0)
           (-30.0 30.0)
  end
  begin
     id 15 
     name upperneck
     direction -0.0172474 0.994813 -0.100253   
     length 1.77058   
     axis 0 0 0   XYZ
    dof rx ry rz
    limits (-20.0 45.0)
           (-30.0 30.0)
           (-30.0 30.0)
  end
  begin
     id 16
     name head
     direction -0.00486455 0.99894 -0.0457663  
     length 1.77427  
     axis 0 0 0   XYZ
    dof rx ry rz
    limits (-20.0 45.0)
           (-30.0 30.0)
           (-30.0 30.0)
  end
  begin
     id 17 
     name lclavicle
     direction 0.927314 0.333734 -0.169441  
     length 3.97584  
     axis 0 0 0   XYZ
    dof ry rz
    limits (-20.0 10.0)
           (0.0 20.0)
  end
  begin
     id 18 
     name lhumerus
     direction 1 -4.48965e-011 -3.25313e-028   
     length 4.76468   
     axis 180 -30 -90   XYZ
    dof rx ry rz
    limits (-60.0 90.0)
           (-90.0 90.0)
           (-90.0 90.0)
  end
  begin
     id 19
     name lradius
     direction 1 -4.48969e-011 -2.8465e-028   
     length 3.52712   
     axis -180 -30 -90   XYZ
    dof rx
    limits (-10.0 170.0)
  end
  begin
     id 20
     name lwrist
     direction 1 -4.4896e-011 -7.78665e-028   
     length 1.76356   
     axis 1.91374e-015 90 90   XYZ
    dof ry
    limits (-180.0 0.0)
 end
  begin
     id 21 
     name lhand
     direction 1 -4.48959e-011 -1.55733e-027   
     length 0.859564   
     axis 9.9371e-016 90 90   XYZ
    dof rx rz
    limits (-90.0 90.0)
           (-45.0 45.0)
  end
  begin
     id 22 
     name lfingers
     direction 1 -4.48965e-011 -3.11466e-027   
     length 0.693002   
     axis 1.98742e-015 90 90   XYZ
    dof rx
    limits (0.0 90.0)
  end
  begin
     id 23
     name lthumb
     direction 0.707107 -6.34948e-011 0.707107   
     length 0.995017   
     axis -90 45 2.85299e-015   XYZ
    dof rx rz
    limits (-45.0 45.0)
           (-45.0 45.0)
  end
  begin
     id 24 
     name rclavicle
     direction -0.899388 0.348209 -0.264294   
     length 3.68366  
     axis 0 0 0   XYZ 
    dof ry rz
    limits (-10.0 20.0)
           (-20.0 0.0)
  end
  begin
     id 25 
     name rhumerus
     direction -1 -4.48965e-011 -3.01536e-027  
     length 4.90577   
     axis 180 30 90   XYZ
    dof rx ry rz
    limits (-90.0 60.0)
           (-90.0 90.0)
           (-90.0 90.0)
  end
  begin
     id 26 
     name rradius
     direction -1 -4.48966e-011 3.93291e-027   
     length 3.42692   
     axis -180 30 90   XYZ
    dof rx
    limits (-10.0 170.0)
  end
  begin
     id 27 
     name rwrist
     direction -1 -4.48969e-011 -7.78665e-028   
     length 1.71346   
     axis 1.91374e-015 -90 -90   XYZ
    dof ry
    limits (-180.0 0.0)
  end
  begin
     id 28
     name rhand
     direction -1 -4.48967e-011 -1.55733e-027   
     length 0.740957   
     axis 9.9371e-016 -90 -90   XYZ
    dof rx rz
    limits (-90.0 90.0)
           (-45.0 45.0)
  end
  begin
     id 29
     name rfingers
     direction -1 -4.48949e-011 -3.11466e-027   
     length 0.597378   
     axis 1.98742e-015 -90 -90   XYZ
    dof rx
    limits (0.0 90.0)
  end
  begin
     id 30
     name rthumb
     direction -0.707107 -6.34931e-011 0.707107   
     length 0.857719   
     axis -90 -45 -2.85299e-015   XYZ
    dof rx rz
    limits (-45.0 45.0)
           (-45.0 45.0)
  end
:hierarchy
  begin
    root lhipjoint rhipjoint lowerback
    lhipjoint lfemur
    lfemur ltibia
    ltibia lfoot
    lfoot ltoes
    rhipjoint rfemur
    rfemur rtibia
    rtibia rfoot
    rfoot rtoes
    lowerback upperback
    upperback thorax
    thorax lowerneck lclavicle rclavicle
    lowerneck upperneck
    upperneck head
    lclavicle lhumerus
    lhumerus lradius
    lradius lwrist
    lwrist lhand lthumb
    lhand lfingers
    rclavicle rhumerus
    rhumerus rradius
    rradius rwrist
    rwrist rhand rthumb
    rhand rfingers
  end

#!OML:ASF E:\I on waltz\AllaLogoMonkeySwing\Project 1\Capture day 1\Session 1\Subject1.ASF
:FULLY-SPECIFIED
:DEGREES
97
root 1.76491 16.6176 1.03607 24.4605 -0.824553 -1.5823
lowerback 37.9979 1.72975 -0.957301
upperback 11.5741 1.9288 2.16177
thorax -5.92563 0.807934 2.07033
lowerneck -8.42844 0.140528 -1.12727
upperneck 28.1129 0.462292 -0.184855
head 10.3434 0.0798903 0.181966
rclavicle 2.78299e-015 -5.36719e-015
rhumerus 5.47199 5.13905 -74.322
rradius 50.8179
rwrist -12.3584
rhand -3.45308 -38.6644
rfingers 7.12502
rthumb 22.2791 -67.4002
lclavicle 2.78299e-015 -5.36719e-015
lhumerus -9.96358 0.209344 83.2173
lradius 62.5314
lwrist 7.70537
lhand -9.1575 -16.3649
lfingers 7.12502
lthumb 16.7948 12.9287
rfemur -61.931 -6.49543 24.8588
rtibia 50.0646
rfoot -12.3256 0.113649
rtoes 22.2736
lfemur -61.4641 7.29936 -22.6243
ltibia 48.9383
lfoot -15.2692 -8.10661
ltoes -10.3996
98
root 1.76379 16.3727 0.963856 24.8244 -0.791738 -1.53748
lowerback 38.8867 1.79627 -0.934249
upperback 11.8249 1.99162 2.04256
thorax -5.93222 0.835 1.89954
lowerneck -8.38243 0.108549 -0.920839
upperneck 27.6566 0.413151 -0.318091
head 10.167 0.0672283 0.0933585
rclavicle 1.19271e-015 1.16289e-014
rhumerus 6.79159 4.99375 -73.4203
rradius 51.4716
rwrist -12.2846
rhand -3.4691 -38.6124
rfingers 7.12502
rthumb 22.2637 -67.35
lclavicle 1.19271e-015 1.16289e-014
lhumerus -8.6449 -0.0770644 82.2825
lradius 63.1858
lwrist 8.02677
lhand -9.20731 -16.3292
lfingers 7.12502
lthumb 16.7469 12.9685
rfemur -64.876 -6.99697 25.3299
rtibia 53.6701
rfoot -13.1633 0.609867
rtoes 22.6482
lfemur -64.3539 7.74814 -23.171
ltibia 52.4933
lfoot -17.8574 -8.47057
ltoes -15.0966
99
root 1.77292 16.1324 0.893488 24.961 -0.835106 -1.11564
lowerback 39.8774 1.81259 -1.00936
upperback 12.0737 1.94596 1.78618
thorax -5.95574 0.816326 1.67374
lowerneck -8.47706 0.0831233 -0.99675
upperneck 27.3294 0.323986 -0.0530875
head 10.0649 0.0496918 0.189941
rclavicle 1.74931e-014 1.15295e-014
rhumerus 8.14149 4.68566 -72.563
rradius 51.8087
rwrist -12.3328
rhand -3.57259 -38.4512
rfingers 7.12502
rthumb 22.1643 -67.2006
lclavicle 1.74931e-014 1.15295e-014
lhumerus -7.23041 -0.30521 81.3683
lradius 63.5727
lwrist 8.24579
lhand -9.24354 -16.2746
lfingers 7.12502
lthumb 16.712 13.0261
rfemur -67.5897 -7.71545 25.4267
rtibia 57.2747
rfoot -14.0656 1.21106
rtoes 23.373
lfemur -66.9034 8.00163 -24.1057
ltibia 56.0197
lfoot -19.1741 -8.73069
ltoes -14.7576
100
root 1.7543 15.8828 0.828773 24.8055 -0.560117 -1.05523
lowerback 41.0146 1.85801 -0.948682
upperback 12.268 2.0102 1.78459
thorax -6.08453 0.842928 1.6028
lowerneck -8.45874 0.0164346 -1.10577
upperneck 27.0021 0.217587 0.0887418
head 9.9424 0.00858501 0.246686
rclavicle 2.62396e-014 7.55382e-015
rhumerus 9.19706 4.44453 -71.6115
rradius 52.1379
rwrist -12.6261
rhand -3.89816 -38.019
rfingers 7.12502
rthumb 21.8517 -66.8051
lclavicle 2.62396e-014 7.55382e-015
lhumerus -5.97668 -0.482831 80.5381
lradius 63.7854
lwrist 8.3934
lhand -9.33003 -16.2824
lfingers 7.12502
lthumb 16.6287 13.0253
rfemur -69.9101 -8.33648 25.9816
rtibia 60.8611
rfoot -15.1999 1.54636
rtoes 24.2261
lfemur -69.1978 8.3176 -24.4842
ltibia 59.5882
lfoot -20.329 -9.13691
ltoes -14.0698
101
root 1.7415 15.6214 0.767867 24.4007 -0.242049 -1.23863
lowerback 42.3997 1.85012 -0.658249
upperback 12.3345 2.10246 1.81269
thorax -6.40821 0.883988 1.42957
lowerneck -8.24466 -0.0481501 -1.03846
upperneck 26.5966 0.15284 -0.0551081
head 9.75526 -0.0262061 0.177507
rclavicle -5.96354e-015 -3.57812e-015
rhumerus 9.9054 4.26529 -70.679
rradius 52.7232
rwrist -12.9919
rhand -4.20705 -37.7241
rfingers 7.12502
rthumb 21.5551 -66.5446
lclavicle -5.96354e-015 -3.57812e-015
lhumerus -4.99827 -0.529765 79.7407
lradius 64.0136
lwrist 8.52209
lhand -9.31324 -16.3285
lfingers 7.12502
lthumb 16.6449 12.9778
rfemur -71.9164 -8.9312 26.7758
rtibia 64.3619
rfoot -16.4576 1.80628
rtoes 24.3651
lfemur -71.2544 8.73824 -24.5968
ltibia 63.1472
lfoot -21.3686 -9.53141
ltoes -13.5716
102
root 1.73279 15.3451 0.713815 23.9542 -0.103274 -1.27061
lowerback 43.6667 1.89474 -0.601192
upperback 12.3753 2.16328 1.76996
thorax -6.71141 0.909163 1.31479
lowerneck -8.04448 -0.0848609 -1.02593
upperneck 26.2216 0.110011 -0.100178
head 9.58275 -0.0467137 0.154981
rclavicle -1.82882e-014 -1.17283e-014
rhumerus 10.5603 3.97664 -69.9079
rradius 53.3773
rwrist -13.3122
rhand -4.03544 -37.8404
rfingers 7.12502
rthumb 21.7199 -66.6419
lclavicle -1.82882e-014 -1.17283e-014
lhumerus -4.11877 -0.381286 78.9785
lradius 64.2465
lwrist 8.62344
lhand -9.29509 -16.2745
lfingers 7.12502
lthumb 16.6624 13.0304
rfemur -73.8754 -9.47806 27.3485
rtibia 67.8666
rfoot -17.8328 1.91441
rtoes 23.4615
lfemur -73.3002 9.17301 -24.9312
ltibia 66.7279
lfoot -22.3773 -9.84784
ltoes -13.1685
103
root 1.7262 15.0554 0.658679 23.5612 0.127936 -1.50047
lowerback 44.6089 1.85732 -0.336747
upperback 12.4833 2.21734 1.75684
thorax -6.8338 0.933209 1.13396
lowerneck -7.928 -0.126478 -1.03302
upperneck 25.8173 0.0377687 -0.0399745
head 9.41694 -0.0721358 0.169333
rclavicle 1.19271e-015 9.44227e-015
rhumerus 11.2724 3.59646 -69.2425
rradius 53.9756
rwrist -13.688
rhand -3.80936 -38.2349
rfingers 7.12502
rthumb 21.937 -67.0112
lclavicle 1.19271e-015 9.44227e-015
lhumerus -3.21214 -0.182161 78.2665
lradius 64.536
lwrist 8.8426
lhand -9.31958 -15.7224
lfingers 7.12502
lthumb 16.6388 13.5844
rfemur -75.9012 -9.89777 28.0823
rtibia 71.3608
rfoot -18.954 1.78381
rtoes 21.4013
lfemur -75.4947 9.54228 -24.9984
ltibia 70.303
lfoot -23.3 -10.1592
ltoes -12.6117
104
root 1.72003 14.7566 0.602118 23.2269 0.325712 -1.79245
lowerback 45.2063 1.84766 -0.0747786
upperback 12.6853 2.3065 1.75538
thorax -6.75444 0.973877 0.958587
lowerneck -7.87718 -0.155165 -0.872495
upperneck 25.3365 -0.00809896 -0.132401
head 9.23767 -0.085765 0.105238
rclavicle 1.59028e-014 4.96962e-015
rhumerus 11.9936 3.18297 -68.5932
rradius 54.5368
rwrist -14.0214
rhand -3.87478 -38.3844
rfingers 7.12502
rthumb 21.8742 -67.168
lclavicle 1.59028e-014 4.96962e-015
lhumerus -2.28182 0.0262517 77.6095
lradius 64.8599
lwrist 9.19775
lhand -9.43829 -15.1612
lfingers 7.12502
lthumb 16.5245 14.1552
rfemur -78.0354 -10.0821 28.7127
rtibia 74.8167
rfoot -19.9037 1.62194
rtoes 20.8714
lfemur -77.7447 9.91337 -24.986
ltibia 73.8047
lfoot -24.1217 -10.4361
ltoes -12.2333
105
root 1.71376 14.4585 0.547874 22.9089 0.391354 -1.92699
lowerback 45.4957 1.95788 -0.030979
upperback 13.0146 2.44476 1.75972
thorax -6.45856 1.03574 0.885856
lowerneck -7.94041 -0.208212 -0.666707
upperneck 24.8448 -0.0667124 -0.336185
head 9.07734 -0.112361 -0.00524704
rclavicle -1.19271e-015 3.37934e-015
rhumerus 12.7625 2.60502 -67.9344
rradius 55.0206
rwrist -14.1715
rhand -4.01287 -38.3686
rfingers 7.12502
rthumb 21.7416 -67.1676
lclavicle -1.19271e-015 3.37934e-015
lhumerus -1.25305 0.338626 77.1114
lradius 65.0388
lwrist 9.55009
lhand -9.67629 -15.4795
lfingers 7.12502
lthumb 16.2954 13.8558
rfemur -80.1796 -10.1632 29.0808
rtibia 78.1682
rfoot -20.7028 1.51547
rtoes 20.9914
lfemur -79.893 10.2737 -25.1582
ltibia 77.1522
lfoot -24.8924 -10.6191
ltoes -12.0064
106
root 1.70809 14.1539 0.501427 22.7329 0.364859 -2.02152
lowerback 45.7857 2.11697 -0.107386
upperback 13.1232 2.59476 1.77763
thorax -6.41487 1.09993 0.879753
lowerneck -8.05529 -0.251921 -0.651882
upperneck 24.5703 -0.112664 -0.399227
head 9.00338 -0.137191 -0.0335528
rclavicle -2.14687e-014 -1.00386e-014
rhumerus 13.2411 2.1038 -67.3516
rradius 55.5542
rwrist -14.2567
rhand -4.17507 -38.3632
rfingers 7.12502
rthumb 21.5858 -67.1801
lclavicle -2.14687e-014 -1.00386e-014
lhumerus -0.641506 0.749421 76.7497
lradius 65.3979
lwrist 9.97632
lhand -9.8698 -15.8405
lfingers 7.12502
lthumb 16.109 13.5099
rfemur -82.4587 -10.1323 29.3949
rtibia 81.4197
rfoot -22.0838 1.07215
rtoes 18.3711
lfemur -82.1761 10.6032 -25.4005
ltibia 80.411
lfoot -25.6764 -10.7034
ltoes -11.7279
107
root 1.69889 13.8597 0.453737 22.3513 0.548637 -1.99679
lowerback 46.9064 1.93029 0.162718
upperback 12.7945 2.46429 1.47324
thorax -7.02965 1.05276 0.452313
lowerneck -7.92364 -0.222979 -0.523022
upperneck 24.3714 -0.14408 -0.199047
head 8.90938 -0.120419 0.0095736
rclavicle -2.3059e-014 -4.96962e-016
rhumerus 13.1508 1.69972 -67.3173
rradius 56.3171
rwrist -14.3972
rhand -4.49943 -38.159
rfingers 7.12502
rthumb 21.2743 -67.0114
lclavicle -2.3059e-014 -4.96962e-016
lhumerus -0.620832 0.976323 75.9852
lradius 66.1483
lwrist 10.7127
lhand -10.0509 -15.6544
lfingers 7.12502
lthumb 15.9346 13.7101
rfemur -84.4656 -10.2785 29.6001
rtibia 84.543
rfoot -23.5689 0.502727
rtoes 16.951
lfemur -84.1376 10.7434 -25.6503
ltibia 83.5012
lfoot -26.4127 -10.8291
ltoes -11.2713
108
root 1.68737 13.5636 0.405039 21.8424 0.788659 -2.01888
lowerback 48.7042 1.81419 0.313875
upperback 11.7346 2.3943 1.32812
thorax -7.29715 1.01775 0.297766
lowerneck -7.77976 -0.212009 -0.54819
upperneck 23.938 -0.145402 -0.119782
head 8.73294 -0.114987 0.0408455
rclavicle 5.96354e-015 -2.18663e-015
rhumerus 13.2317 1.3998 -67.0482
rradius 57.2475
rwrist -14.6339
rhand -4.66113 -38.215
rfingers 7.12502
rthumb 21.119 -67.0848
lclavicle 5.96354e-015 -2.18663e-015
lhumerus -0.441972 1.39068 75.5464
lradius 66.9657
lwrist 11.6831
lhand -10.3049 -15.3365
lfingers 7.12502
lthumb 15.69 14.0473
rfemur -86.1682 -10.381 29.7392
rtibia 87.5646
rfoot -24.3246 0.127242
rtoes 17.2927
lfemur -85.9398 10.8642 -25.7836
ltibia 86.4853
lfoot -27.0779 -10.9323
ltoes -10.679
109
root 1.68012 13.2716 0.356553 21.1141 1.13727 -1.92901
lowerback 49.3739 1.67869 0.456793
upperback 11.9147 2.30744 1.31676
thorax -7.18811 0.981842 0.253884
lowerneck -7.67559 -0.263009 -0.6153
upperneck 23.2979 -0.212829 -0.086815
head 8.49481 -0.147406 0.0573253
rclavicle 3.97569e-016 -2.68359e-015
rhumerus 13.6356 0.965555 -66.6251
rradius 58.0612
rwrist -15.0289
rhand -4.70874 -38.4255
rfingers 7.12502
rthumb 21.0732 -67.3004
lclavicle 3.97569e-016 -2.68359e-015
lhumerus 0.184353 1.79453 75.3778
lradius 67.6254
lwrist 12.7744
lhand -10.7334 -15.0529
lfingers 7.12502
lthumb 15.2773 14.3629
rfemur -87.5656 -10.6612 29.7503
rtibia 90.4607
rfoot -23.8858 -0.080362
rtoes 18.8123
lfemur -87.3901 10.7939 -25.9311
ltibia 89.2725
lfoot -27.7077 -10.8671
ltoes -10.4235
110
root 1.67851 12.9914 0.305376 20.113 1.70635 -1.54509
lowerback 50.5366 1.35278 0.68049
upperback 11.9285 2.04829 1.23345
thorax -7.31735 0.873929 0.163108
lowerneck -7.58372 -0.348609 -0.636763
upperneck 22.8411 -0.336673 -0.0383493
head 8.32324 -0.200796 0.0660866
rclavicle 1.63003e-014 8.05078e-015
rhumerus 13.9641 0.638329 -66.2261
rradius 58.6406
rwrist -15.6517
rhand -4.90202 -38.4207
rfingers 7.12502
rthumb 20.8875 -67.3162
lclavicle 1.63003e-014 8.05078e-015
lhumerus 0.715185 2.04838 75.2521
lradius 68.2224
lwrist 13.8739
lhand -11.2485 -14.9075
lfingers 7.12502
lthumb 14.7811 14.5454
rfemur -88.6553 -11.3574 29.4678
rtibia 93.263
rfoot -24.8684 -0.675699
rtoes 18.8107
lfemur -88.3549 10.3208 -26.2634
ltibia 91.8639
lfoot -28.3156 -10.5604
ltoes -10.4988
